<?xml version="1.0" encoding="UTF-8" standalone="no"?> <svg width="512" height="512" viewBox="0 0 512 512" fill="none" xmlns="http://www.w3.org/2000/svg">
<path d="M344 360H312C309.878 360 307.843 360.843 306.343 362.343C304.843 363.843 304 365.878 304 368C304 370.122 304.843 372.157 306.343 373.657C307.843 375.157 309.878 376 312 376H344V360Z" fill="black"/>
<path d="M200 152C213.255 152 224 141.255 224 128C224 114.745 213.255 104 200 104C186.745 104 176 114.745 176 128C176 141.255 186.745 152 200 152Z" fill="black"/>
<path d="M136 416C136 413.878 136.843 411.843 138.344 410.343C139.844 408.843 141.879 408 144 408H289.721C290.401 407.489 291.093 406.99 291.806 406.515C296.051 403.691 299.691 400.051 302.514 395.806L305.628 391.135C300.032 389.59 295.185 386.069 291.986 381.224C288.786 376.379 287.452 370.538 288.23 364.785C289.008 359.031 291.845 353.755 296.216 349.933C300.587 346.111 306.194 344.003 312 344H344C344 344 344.031 317.5 344.046 316.125C336.556 310.349 330.492 302.93 326.323 294.439C322.154 285.949 319.991 276.614 320 267.155C320.02 227.339 328.196 187.949 344.022 151.414C344.014 151.266 344 151.119 344 150.969V76C343.994 70.6975 341.885 65.614 338.136 61.8646C334.386 58.1152 329.303 56.0061 324 56H51.6074C54.5016 61.308 56.0124 67.2593 56.0004 73.305V432C56.0004 442.609 60.2147 452.783 67.7162 460.284C75.2176 467.786 85.3918 472 96.0004 472C106.609 472 116.783 467.786 124.285 460.284C131.786 452.783 136 442.609 136 432V416ZM280 216H296C298.122 216 300.157 216.843 301.657 218.343C303.158 219.843 304 221.878 304 224C304 226.122 303.158 228.157 301.657 229.657C300.157 231.157 298.122 232 296 232H280C277.879 232 275.844 231.157 274.344 229.657C272.843 228.157 272 226.122 272 224C272 221.878 272.843 219.843 274.344 218.343C275.844 216.843 277.879 216 280 216ZM304 256C304 258.122 303.158 260.157 301.657 261.657C300.157 263.157 298.122 264 296 264H200C197.879 264 195.844 263.157 194.344 261.657C192.843 260.157 192 258.122 192 256C192 253.878 192.843 251.843 194.344 250.343C195.844 248.843 197.879 248 200 248H296C298.122 248 300.157 248.843 301.657 250.343C303.158 251.843 304 253.878 304 256ZM256 224C256 226.122 255.158 228.157 253.657 229.657C252.157 231.157 250.122 232 248 232H224C221.879 232 219.844 231.157 218.344 229.657C216.843 228.157 216 226.122 216 224C216 221.878 216.843 219.843 218.344 218.343C219.844 216.843 221.879 216 224 216H248C250.122 216 252.157 216.843 253.657 218.343C255.158 219.843 256 221.878 256 224ZM200 88C207.912 88 215.645 90.346 222.223 94.7412C228.801 99.1365 233.928 105.384 236.956 112.693C239.983 120.002 240.775 128.044 239.232 135.804C237.688 143.563 233.879 150.69 228.285 156.284C222.691 161.878 215.563 165.688 207.804 167.231C200.045 168.775 192.002 167.983 184.693 164.955C177.384 161.928 171.137 156.801 166.742 150.223C162.346 143.645 160 135.911 160 128C160.012 117.395 164.23 107.228 171.729 99.7289C179.228 92.23 189.395 88.0119 200 88V88ZM136 216H192C194.122 216 196.157 216.843 197.657 218.343C199.158 219.843 200 221.878 200 224C200 226.122 199.158 228.157 197.657 229.657C196.157 231.157 194.122 232 192 232H136C133.879 232 131.844 231.157 130.344 229.657C128.843 228.157 128 226.122 128 224C128 221.878 128.843 219.843 130.344 218.343C131.844 216.843 133.879 216 136 216ZM104 248H168C170.122 248 172.157 248.843 173.657 250.343C175.158 251.843 176 253.878 176 256C176 258.122 175.158 260.157 173.657 261.657C172.157 263.157 170.122 264 168 264H104C101.879 264 99.8439 263.157 98.3436 261.657C96.8433 260.157 96.0004 258.122 96.0004 256C96.0004 253.878 96.8433 251.843 98.3436 250.343C99.8439 248.843 101.879 248 104 248V248ZM95.0004 288C95.0004 285.878 95.8433 283.843 97.3436 282.343C98.8439 280.843 100.879 280 103 280H296C298.122 280 300.157 280.843 301.657 282.343C303.158 283.843 304 285.878 304 288C304 290.122 303.158 292.157 301.657 293.657C300.157 295.157 298.122 296 296 296H103C100.879 296 98.8439 295.157 97.3436 293.657C95.8433 292.157 95.0004 290.122 95.0004 288ZM272 336C272 338.122 271.158 340.157 269.657 341.657C268.157 343.157 266.122 344 264 344H216C213.879 344 211.844 343.157 210.344 341.657C208.843 340.157 208 338.122 208 336C208 333.878 208.843 331.843 210.344 330.343C211.844 328.843 213.879 328 216 328H264C266.122 328 268.157 328.843 269.657 330.343C271.158 331.843 272 333.878 272 336ZM192 336C192 338.122 191.158 340.157 189.657 341.657C188.157 343.157 186.122 344 184 344H136C133.879 344 131.844 343.157 130.344 341.657C128.843 340.157 128 338.122 128 336C128 333.878 128.843 331.843 130.344 330.343C131.844 328.843 133.879 328 136 328H184C186.122 328 188.157 328.843 189.657 330.343C191.158 331.843 192 333.878 192 336ZM104 376C101.879 376 99.8439 375.157 98.3436 373.657C96.8433 372.157 96.0004 370.122 96.0004 368C96.0004 365.878 96.8433 363.843 98.3436 362.343C99.8439 360.843 101.879 360 104 360H264C266.122 360 268.157 360.843 269.657 362.343C271.158 363.843 272 365.878 272 368C272 370.122 271.158 372.157 269.657 373.657C268.157 375.157 266.122 376 264 376H104Z" fill="black"/>
<path d="M300.681 419.827C296.178 422.827 292.625 427.05 290.438 432H344V392H324.281L315.827 404.681C311.834 410.685 306.686 415.834 300.681 419.827Z" fill="black"/>
<path d="M316.478 472H403.522C410.297 471.991 416.846 469.571 421.999 465.174C427.152 460.776 430.572 454.689 431.645 448H288.355C289.429 454.689 292.849 460.776 298.002 465.174C303.154 469.571 309.704 471.991 316.478 472Z" fill="black"/>
<path d="M416 368C415.998 365.879 415.154 363.846 413.654 362.346C412.154 360.846 410.121 360.002 408 360H360V376H408C410.121 375.998 412.154 375.154 413.654 373.654C415.154 372.154 415.998 370.121 416 368V368Z" fill="black"/>
<path d="M452.422 88.8449L465.458 82.3259L475.614 51.8579L449.236 59.3999C439.927 62.0599 431.007 65.9296 422.705 70.9099C406.454 80.6731 392.978 94.4393 383.562 110.894L372.233 130.719C348.509 172.278 336.021 219.301 336 267.155C335.996 276.923 339.114 286.436 344.9 294.306C350.459 213.542 381.637 136.657 433.9 74.8319C434.579 74.0299 435.409 73.3695 436.343 72.8883C437.277 72.407 438.296 72.1145 439.343 72.0273C440.39 71.9401 441.444 72.06 442.445 72.3801C443.445 72.7002 444.373 73.2142 445.175 73.8929C445.977 74.5716 446.637 75.4016 447.119 76.3355C447.6 77.2694 447.892 78.289 447.98 79.3359C448.067 80.3829 447.947 81.4368 447.627 82.4375C447.307 83.4381 446.793 84.3659 446.114 85.1679C396.02 144.427 366.151 218.13 360.855 295.545C370.776 287.517 379.803 278.442 387.779 268.479L399.034 254.4L392.411 234.529C392.01 233.326 391.901 232.046 392.092 230.793C392.284 229.54 392.77 228.35 393.511 227.322C394.252 226.294 395.227 225.457 396.355 224.879C397.483 224.301 398.733 224 400 224H411.056L430.266 185.58L418.343 173.657C417.379 172.693 416.677 171.498 416.304 170.186C415.931 168.874 415.9 167.489 416.213 166.162C416.527 164.834 417.174 163.609 418.094 162.603C419.014 161.596 420.176 160.841 421.47 160.41L441.67 153.676L455.358 112.614L448.84 99.5779C448.37 98.638 448.09 97.6148 448.016 96.5667C447.942 95.5186 448.075 94.4661 448.408 93.4694C448.74 92.4728 449.266 91.5514 449.955 90.7579C450.644 89.9644 451.482 89.3144 452.422 88.8449V88.8449Z" fill="black"/>
<path d="M276.522 424H152V432C152.005 439.454 150.516 446.834 147.623 453.704C144.73 460.574 140.49 466.795 135.154 472H282.344C276.837 465.418 273.357 457.382 272.323 448.862C271.29 440.343 272.748 431.707 276.522 424Z" fill="black"/>
<path d="M360 432H429.562C427.376 427.05 423.822 422.827 419.318 419.827C413.314 415.833 408.166 410.685 404.172 404.681L395.719 392H360V432Z" fill="black"/>
</svg>
